<svg t="1589877013723" class="icon" viewBox="0 0 1097 1024" version="1.1" xmlns="http://www.w3.org/2000/svg" p-id="2504" width="200" height="200"><path d="M516.226955 1022.750915c68.9495 0 135.900464-13.49012 198.979263-40.095633 60.830446-25.731154 115.540376-62.579166 162.381068-109.544767 46.965601-46.965601 83.688705-101.550622 109.544767-162.381069 26.605514-62.953891 40.095633-129.904855 40.095633-198.979263 0-68.9495-13.49012-135.900464-40.095633-198.979263-25.731154-60.830446-62.579166-115.540376-109.544767-162.381069-46.965601-46.965601-101.550622-83.688705-162.381068-109.544767-62.953891-26.605514-129.904855-40.095633-198.979263-40.095633-68.9495 0-135.900464 13.49012-198.979264 40.095633C256.417245 66.576238 201.707316 103.42425 154.866623 150.389851c-46.965601 46.965601-83.688705 101.550622-109.544767 162.381069-26.605514 62.953891-40.095633 129.904855-40.095633 198.979263 0 68.9495 13.49012 135.900464 40.095633 198.979263C71.05301 771.559893 107.901021 826.269822 154.866623 873.110515c46.965601 46.965601 101.550622 83.688705 162.381068 109.544767 63.0788 26.605514 130.029763 40.095633 198.979264 40.095633zM515.102778 425.938034L326.116196 614.924616c-5.620883 5.620883-13.115394 8.743596-20.984631 8.743596-7.869236 0-15.363747-3.122713-20.98463-8.743596s-8.743596-13.115394-8.743596-20.984631c0-7.869236 3.122713-15.363747 8.743596-20.98463l209.846304-209.846304c11.616492-11.616492 30.352769-11.616492 41.969261 0l209.846304 209.846304c5.620883 5.620883 8.743596 13.115394 8.743596 20.98463 0 7.869236-3.122713 15.363747-8.743596 20.984631s-12.990485 8.743596-20.984631 8.743596c-7.869236 0-15.363747-3.122713-20.98463-8.743596L515.102778 425.938034z m0 0" p-id="2505" fill="#027bff"></path></svg>